<?xml version="1.0" standalone="no"?>
<!DOCTYPE svg PUBLIC "-//W3C//DTD SVG 20010904//EN"
 "http://www.w3.org/TR/2001/REC-SVG-20010904/DTD/svg10.dtd">
<svg version="1.0" xmlns="http://www.w3.org/2000/svg"
 width="900.000000pt" height="506.000000pt" viewBox="0 0 900.000000 506.000000"
 preserveAspectRatio="xMidYMid meet">

<g transform="translate(0.000000,506.000000) scale(0.100000,-0.100000)"
fill="#000000" stroke="none">
<path d="M0 2530 l0 -2530 4500 0 4500 0 0 2530 0 2530 -4500 0 -4500 0 0
-2530z m4533 2234 c76 -39 404 -229 419 -243 13 -12 16 -25 12 -53 -6 -35 -13
-40 -133 -110 -69 -40 -135 -78 -147 -84 -11 -6 -144 -83 -295 -171 -151 -88
-288 -168 -306 -177 -66 -33 -92 -25 -328 113 l-220 128 0 43 0 42 141 83
c126 74 339 197 658 382 117 67 146 74 199 47z m-1401 -75 c19 -10 15 -14 -43
-46 -35 -19 -152 -86 -259 -148 -107 -62 -249 -144 -315 -182 -142 -82 -165
-109 -165 -190 l0 -55 33 20 c43 26 610 353 717 414 l85 48 3 -278 c1 -152 0
-287 -3 -300 l-6 -23 -26 21 -26 20 -34 -26 -35 -27 -39 23 c-22 12 -47 19
-56 16 -13 -6 -9 -14 22 -46 l38 -39 -25 -38 c-20 -29 -62 -59 -189 -132 -90
-52 -217 -125 -281 -163 -64 -37 -126 -68 -138 -68 -12 0 -35 9 -51 21 l-29
20 0 342 c0 340 0 342 23 369 12 15 123 86 247 157 124 71 290 167 370 214 80
47 149 86 153 86 5 1 18 -4 29 -10z m4934 -289 c64 -31 170 -139 214 -219 19
-36 60 -89 91 -120 70 -69 121 -149 149 -231 26 -78 23 -110 -12 -129 -32 -18
19 -44 -528 272 -370 214 -405 236 -402 258 9 63 99 132 168 128 27 -2 52 4
75 19 78 48 94 53 145 49 27 -2 72 -14 100 -27z m-2072 -278 c55 -30 118 -97
151 -162 13 -25 45 -65 70 -90 54 -51 103 -141 111 -203 6 -39 4 -44 -19 -54
-19 -9 -29 -9 -43 1 -16 11 -457 266 -611 353 -40 23 -41 25 -31 54 13 38 73
79 114 79 18 0 58 14 90 30 66 35 89 34 168 -8z m-2554 -39 c0 -44 20 -83 42
-83 5 0 26 -11 48 -25 46 -29 50 -30 50 -11 0 8 4 26 10 41 8 20 14 24 26 17
15 -8 16 -40 15 -288 -1 -153 -6 -283 -10 -287 -4 -4 -15 -5 -24 -1 -13 4 -17
19 -17 53 l-1 46 -64 37 c-64 36 -65 36 -65 13 0 -29 -25 -51 -42 -37 -13 11
-14 36 -10 395 2 170 3 177 22 177 17 0 20 -7 20 -47z m1718 33 c41 -22 96
-88 115 -138 4 -12 2 -15 -7 -12 -8 3 -13 12 -12 21 0 9 -6 18 -14 20 -12 4
-13 3 -1 -5 7 -5 11 -14 7 -20 -3 -6 -2 -13 4 -17 12 -7 14 -266 3 -281 -5 -5
7 5 25 23 27 27 41 33 75 33 23 0 50 -7 60 -15 34 -25 67 -78 67 -107 0 -18 5
-28 15 -28 8 0 15 -4 15 -9 0 -5 3 -23 6 -41 l7 -32 -39 36 c-41 38 -54 44
-54 24 1 -16 66 -88 80 -88 6 0 10 -5 10 -11 0 -6 -6 -9 -14 -6 -9 4 -16 -4
-19 -21 -3 -15 -9 -36 -13 -47 l-7 -20 17 20 c17 20 17 20 6 -2 -11 -24 -65
-55 -114 -67 -40 -10 -124 33 -155 79 -19 28 -24 48 -23 95 1 59 1 59 -24 50
-93 -36 -225 19 -271 111 -32 63 -35 100 -18 181 18 86 51 158 99 214 58 67
119 89 174 60z m-3916 -66 c30 -19 62 -30 84 -30 46 0 128 -44 143 -76 20 -44
13 -61 -31 -86 -24 -14 -204 -117 -401 -231 l-358 -207 -30 16 c-20 10 -28 21
-25 32 2 9 8 33 11 52 13 64 74 166 136 225 32 31 59 61 59 66 0 22 86 142
130 182 103 92 194 111 282 57z m5775 -261 c87 -50 166 -98 177 -107 40 -37
46 -65 46 -226 l0 -156 -47 -30 c-27 -16 -57 -30 -67 -30 -21 0 -307 161 -345
194 -42 38 -51 75 -51 224 0 96 4 143 13 156 14 19 85 64 104 65 7 1 83 -40
170 -90z m-3907 -15 c0 -7 -4 -16 -10 -19 -14 -9 -30 3 -24 19 6 16 34 17 34
0z m1734 -370 c9 -8 16 -22 16 -29 0 -8 14 -28 30 -45 17 -17 30 -40 30 -51 0
-11 10 -33 22 -49 18 -25 20 -33 10 -55 -14 -31 -42 -33 -42 -2 0 12 -5 39
-11 60 -16 60 -69 103 -69 57 0 -11 -7 -20 -15 -20 -8 0 -15 5 -15 10 0 6 -11
20 -25 32 -27 24 -34 75 -13 96 17 17 64 15 82 -4z m-87 -225 c2 -8 -5 -25
-16 -38 -13 -17 -22 -21 -34 -15 -14 8 -14 13 5 42 21 33 41 38 45 11z m406
-6 c26 -13 27 -16 27 -91 0 -49 -5 -83 -12 -91 -10 -11 -10 -13 0 -7 8 5 12
-2 12 -24 0 -17 -4 -29 -9 -26 -5 3 -8 -2 -7 -11 3 -41 -126 -54 -179 -19 -24
16 -25 20 -25 130 0 99 2 115 20 131 38 34 113 38 173 8z m-273 -22 c0 -56
-43 -91 -110 -91 -39 0 -49 3 -53 20 -5 18 0 20 48 20 58 0 71 10 81 58 9 47
34 41 34 -7z m1837 -16 c55 0 99 3 98 6 -2 3 2 6 10 6 8 0 12 -3 10 -7 -2 -3
0 -12 6 -20 7 -12 9 -10 9 8 0 18 6 22 30 22 17 0 30 5 30 13 0 6 5 4 11 -6 9
-16 28 -18 204 -17 107 1 199 -1 205 -5 6 -4 11 6 12 22 3 63 16 -152 17 -287
l1 -146 50 -29 c28 -16 50 -32 50 -35 0 -7 -456 -273 -476 -278 -12 -3 -494
268 -494 278 0 3 24 19 53 35 l52 31 4 234 c2 129 7 222 10 205 l6 -30 102 0z
m-4865 -3 c75 -40 83 -53 83 -141 0 -68 -4 -83 -37 -149 -32 -63 -37 -80 -31
-114 l6 -41 -38 7 c-33 6 -42 3 -76 -24 -55 -44 -117 -70 -170 -70 -36 0 -57
8 -107 40 -52 34 -63 46 -72 82 -16 56 -6 112 34 194 57 118 160 214 256 241
55 14 90 9 152 -25z m2812 -274 c6 -26 -9 -47 -23 -32 -5 5 -12 19 -16 32 -5
17 -2 22 13 22 12 0 22 -9 26 -22z m-381 -60 l27 -19 0 -364 c0 -270 3 -364
12 -367 14 -5 3 -38 -13 -38 -6 0 -13 9 -16 20 -4 17 -14 20 -54 20 l-49 0 0
85 c0 47 -3 85 -7 85 -5 0 -48 -24 -98 -53 l-90 -53 -3 -87 c-1 -48 -1 -87 2
-87 3 0 32 16 65 35 32 19 62 35 65 35 3 0 6 -25 6 -55 0 -47 -3 -57 -25 -70
-14 -8 -37 -22 -51 -31 l-26 -16 51 -29 c49 -28 51 -31 51 -73 l0 -43 -77 -46
c-47 -27 -82 -41 -87 -36 -16 15 -25 11 -67 -34 l-40 -42 22 38 c33 58 1 96
-39 45 -46 -59 -87 -89 -117 -86 -29 3 -45 14 -45 31 0 4 9 3 19 -3 35 -18 48
-11 76 45 33 64 26 83 -29 77 -32 -4 -84 -42 -58 -42 7 0 11 -10 11 -22 -1
-17 -2 -19 -6 -5 -6 23 -36 22 -58 -3 -25 -28 -36 -107 -18 -126 8 -8 19 -14
24 -14 5 0 9 -4 9 -10 0 -17 -18 -11 -41 13 l-21 22 7 -24 8 -25 -24 25 c-13
14 -36 34 -51 44 l-28 17 -120 -67 c-103 -57 -123 -65 -136 -54 -9 7 -26 18
-38 24 -21 11 -21 13 -24 387 l-2 376 25 31 c14 16 49 43 78 59 29 15 156 88
282 162 127 73 277 160 335 193 58 33 137 79 176 102 150 91 151 91 207 53z
m211 -11 c-7 -19 -29 -23 -39 -7 -3 5 0 18 7 29 10 17 15 18 26 8 7 -8 10 -21
6 -30z m1533 -75 c11 -6 33 -26 47 -43 28 -33 60 -89 52 -89 -3 0 -11 11 -18
24 -12 24 -13 23 -14 -22 -1 -36 1 -41 6 -22 7 23 8 23 9 -8 1 -18 -3 -31 -7
-28 -5 3 -10 -18 -11 -46 -1 -38 3 -54 16 -64 17 -13 17 -14 -2 -7 -19 7 -19
6 -2 -20 13 -20 14 -25 3 -21 -11 4 -13 0 -9 -14 2 -11 -1 -31 -7 -43 l-13
-24 29 25 29 25 -24 -27 c-76 -87 -222 -71 -292 30 -51 75 -21 232 63 327 56
63 92 75 145 47z m-4159 -104 c-6 -18 -28 -21 -28 -4 0 9 7 16 16 16 9 0 14
-5 12 -12z m-259 -157 c16 -10 6 -51 -13 -51 -20 0 -39 27 -32 45 6 17 24 19
45 6z m-190 -113 c1 9 21 12 69 12 37 -1 83 2 102 4 22 4 30 2 21 -3 -9 -6 -4
-8 16 -7 16 2 35 6 41 10 7 4 12 3 12 -3 0 -6 8 -7 17 -4 13 5 15 2 10 -13 -7
-18 -6 -18 7 -1 12 15 31 18 120 20 58 1 106 -1 106 -4 0 -11 30 -6 31 5 1 6
5 0 9 -14 4 -14 8 -91 9 -171 l1 -145 41 -23 c22 -13 37 -27 32 -31 -15 -16
-358 -213 -369 -213 -6 0 -95 48 -198 108 l-187 109 43 26 c30 19 43 34 43 51
1 13 3 96 4 184 2 101 6 147 11 125 4 -19 8 -29 9 -22z m3927 -153 c15 -15 23
-32 20 -41 -3 -9 -2 -12 4 -9 12 8 8 -54 -5 -75 -5 -8 -4 -11 2 -7 7 4 10 -13
8 -46 -1 -28 3 -55 8 -59 16 -10 -55 -48 -90 -48 -49 0 -81 16 -103 52 -38 62
-17 172 44 233 33 33 79 33 112 0z m-441 -125 c4 -6 10 -8 15 -5 5 3 12 -9 15
-27 4 -18 23 -54 41 -81 40 -57 48 -93 42 -188 -4 -81 -11 -89 -79 -89 -60 0
-77 15 -81 70 l-3 45 -60 5 c-111 10 -191 58 -155 94 8 8 15 5 29 -13 15 -20
27 -23 77 -23 92 -1 124 17 145 82 18 54 18 55 -1 69 -24 16 -28 71 -6 71 8 0
18 -5 21 -10z m-365 -235 c0 -8 -7 -15 -15 -15 -8 0 -15 7 -15 15 0 8 7 15 15
15 8 0 15 -7 15 -15z m-262 -154 c19 -11 11 -45 -11 -49 -19 -4 -32 20 -23 43
6 17 15 19 34 6z m142 -93 c0 -7 4 -7 13 0 7 6 43 10 80 10 l67 -1 0 -127 c0
-121 1 -127 23 -139 12 -6 33 -27 46 -46 32 -47 26 -114 -15 -156 -39 -41
-116 -76 -197 -90 -75 -12 -117 -6 -117 17 0 16 -37 94 -46 94 -2 0 0 -9 7
-21 6 -12 7 -25 2 -30 -5 -5 -6 -34 -3 -64 4 -33 2 -60 -4 -66 -8 -9 -8 -10 0
-6 7 4 14 1 17 -7 9 -22 -37 -57 -81 -63 -89 -12 -155 77 -130 175 8 34 7 43
-16 77 -16 23 -26 52 -26 73 0 40 33 95 67 113 22 12 23 18 23 140 l0 128 145
0 c95 0 145 -4 145 -11z m-1477 -475 c27 -25 77 -93 77 -107 0 -7 -3 -7 -8 1
-4 6 -6 -52 -5 -128 1 -77 5 -144 8 -149 10 -16 -68 -59 -118 -66 -38 -6 -56
-2 -101 20 -47 23 -59 35 -82 82 -23 47 -26 62 -20 109 7 58 41 146 77 196 48
67 123 85 172 42z m791 11 c13 -5 16 -23 16 -94 0 -90 -5 -105 -34 -94 -13 5
-16 23 -16 100 0 93 3 100 34 88z m92 -94 c-3 -87 -15 -112 -41 -90 -11 9 -15
32 -15 91 l0 79 30 0 30 0 -4 -80z m2669 -115 c25 -32 32 -51 16 -41 -5 4 -7
-3 -4 -15 4 -16 8 -17 14 -7 5 7 9 8 9 2 0 -6 -3 -14 -7 -18 -4 -4 -8 -33 -8
-64 -1 -53 -3 -58 -34 -76 -28 -16 -38 -17 -70 -7 -77 23 -99 89 -61 180 40
93 96 111 145 46z"/>
<path d="M4311 4597 c-18 -6 -49 -25 -67 -42 -28 -27 -34 -40 -34 -75 0 -117
184 -174 360 -111 111 39 144 125 76 198 -28 31 -36 35 -49 25 -12 -11 -22
-10 -52 3 -43 17 -181 19 -234 2z"/>
<path d="M3930 4440 c-28 -7 -39 -42 -20 -66 7 -7 47 -33 89 -56 42 -23 121
-69 176 -101 101 -60 149 -73 178 -49 8 7 12 22 10 37 -4 19 -40 44 -186 127
-195 111 -209 118 -247 108z"/>
<path d="M4721 4319 c-18 -11 -31 -22 -28 -25 4 -5 77 34 77 42 0 9 -16 3 -49
-17z"/>
<path d="M3710 4277 c0 -3 46 -32 103 -65 121 -70 147 -84 147 -78 0 2 -53 34
-117 72 -142 81 -133 76 -133 71z"/>
<path d="M3970 4126 c0 -3 9 -10 20 -16 11 -6 20 -8 20 -6 0 3 -9 10 -20 16
-11 6 -20 8 -20 6z"/>
<path d="M4020 4095 c0 -6 56 -35 67 -35 4 0 -7 9 -25 20 -33 20 -42 24 -42
15z"/>
<path d="M4130 4064 c-33 -13 -33 -14 -5 -8 17 3 34 10 40 15 11 11 8 11 -35
-7z"/>
<path d="M2978 4272 c-82 -54 -129 -191 -83 -242 10 -11 22 -17 27 -14 5 3 15
0 23 -6 8 -7 24 -9 37 -5 28 9 68 44 68 61 0 6 7 15 15 18 22 8 45 68 45 116
0 76 -69 113 -132 72z"/>
<path d="M2722 4018 c-1 -103 1 -189 6 -191 4 -3 6 52 4 121 -4 234 -8 258
-10 70z"/>
<path d="M2588 3904 c-2 -80 0 -148 5 -151 4 -2 7 64 7 146 0 83 -2 151 -4
151 -3 0 -6 -66 -8 -146z"/>
<path d="M2451 3805 c-1 -77 2 -126 9 -130 7 -4 10 35 10 119 0 69 -4 127 -8
130 -5 3 -10 -50 -11 -119z"/>
<path d="M3440 3941 c0 -32 2 -33 93 -85 l47 -27 0 33 c0 31 -5 36 -70 71
l-70 38 0 -30z"/>
<path d="M3440 3823 c0 -24 10 -34 70 -70 l70 -41 0 32 c0 28 -6 35 -62 66
-35 19 -66 37 -70 38 -5 2 -8 -9 -8 -25z"/>
<path d="M3445 3705 c2 -27 10 -35 88 -79 l47 -28 0 30 c0 26 -8 34 -61 66
-33 20 -64 36 -68 36 -3 0 -6 -11 -6 -25z"/>
<path d="M5440 3460 c0 -10 -7 -23 -16 -28 -12 -7 -13 -11 -5 -17 16 -9 51 23
51 47 0 10 -7 18 -15 18 -8 0 -15 -9 -15 -20z"/>
<path d="M4005 2531 c-93 -54 -278 -161 -410 -237 l-240 -139 -3 -88 c-1 -48
-1 -87 2 -87 5 0 563 321 746 429 93 55 95 57 98 96 4 47 -6 125 -16 125 -4
-1 -83 -45 -177 -99z"/>
<path d="M4003 2220 c0 -41 2 -58 4 -37 2 20 2 54 0 75 -2 20 -4 3 -4 -38z"/>
<path d="M3653 1903 l-293 -176 0 -84 c0 -45 3 -83 8 -83 4 0 35 17 70 38 34
20 168 100 297 177 l235 139 0 83 c0 60 -3 83 -12 82 -7 0 -145 -80 -305 -176z"/>
<path d="M3772 2030 c0 -14 2 -19 5 -12 2 6 2 18 0 25 -3 6 -5 1 -5 -13z"/>
<path d="M3878 1693 c7 -3 16 -2 19 1 4 3 -2 6 -13 5 -11 0 -14 -3 -6 -6z"/>
</g>
</svg>
